<svg width="42" height="42" viewBox="0 0 42 42" fill="none" xmlns="http://www.w3.org/2000/svg">
<path d="M35.1406 1H6.85938C3.62848 1 1 3.62848 1 6.85938V35.1406C1 38.3715 3.62848 41 6.85938 41H35.1406C38.3715 41 41 38.3715 41 35.1406V6.85938C41 3.62848 38.3715 1 35.1406 1ZM38.6562 35.1406C38.6562 37.0791 37.0791 38.6562 35.1406 38.6562H6.85938C4.9209 38.6562 3.34375 37.0791 3.34375 35.1406V6.85938C3.34375 4.9209 4.9209 3.34375 6.85938 3.34375H35.1406C37.0791 3.34375 38.6562 4.9209 38.6562 6.85938V35.1406Z" fill="#070707" stroke="#070707" stroke-width="0.5"/>
<path d="M19.8281 17.4844C19.8281 14.8995 17.7255 12.7969 15.1406 12.7969H8.10938V29.2031H15.1406C17.7255 29.2031 19.8281 27.1005 19.8281 24.5156C19.8281 23.1167 19.2114 21.8597 18.236 21C19.2114 20.1403 19.8281 18.8833 19.8281 17.4844ZM17.4844 24.5156C17.4844 25.808 16.433 26.8594 15.1406 26.8594H10.4531V22.1719H15.1406C16.433 22.1719 17.4844 23.2232 17.4844 24.5156ZM10.4531 19.8281V15.1406H15.1406C16.433 15.1406 17.4844 16.192 17.4844 17.4844C17.4844 18.7768 16.433 19.8281 15.1406 19.8281H10.4531Z" fill="#070707" stroke="#070707" stroke-width="0.5"/>
<path d="M28.0313 17.4844C24.8004 17.4844 22.1719 20.1129 22.1719 23.3438C22.1719 26.5746 24.8004 29.2031 28.0313 29.2031C30.1165 29.2031 32.0611 28.081 33.106 26.2744L31.0772 25.1006C30.4498 26.1855 29.2825 26.8594 28.0313 26.8594C26.5032 26.8594 25.2001 25.8798 24.7164 24.5156H33.8906V23.3438C33.8906 20.1129 31.2621 17.4844 28.0313 17.4844ZM24.7164 22.1719C25.2001 20.8077 26.5032 19.8281 28.0313 19.8281C29.5593 19.8281 30.8624 20.8077 31.3461 22.1719H24.7164Z" fill="#070707" stroke="#070707" stroke-width="0.5"/>
<path d="M23.3438 12.7969H32.7188V15.1406H23.3438V12.7969Z" fill="#070707" stroke="#070707" stroke-width="0.5"/>
</svg>
