<svg width="40" height="40" viewBox="0 0 40 40" fill="none" xmlns="http://www.w3.org/2000/svg">
<path d="M11.6154 0.50961H12.1154V0.5H28.3942C34.5119 0.5 39.5 5.49538 39.5 11.612V28.386C39.5 34.5029 34.5117 39.498 28.4038 39.498H11.6154C5.49635 39.498 0.5 34.5109 0.5 28.4052V11.6216C0.5 5.50553 5.49716 0.50961 11.6154 0.50961ZM2.57692 11.6302V11.6312V28.4149C2.57692 33.4117 6.59973 37.4316 11.6154 37.4316H28.4038C33.4017 37.4316 37.4231 33.4102 37.4231 28.3956V11.6216C37.4231 6.60671 33.4014 2.58565 28.3942 2.58565H11.6154C6.60769 2.58565 2.5871 6.60704 2.57692 11.6302ZM31.2788 7.6997C31.2788 7.12046 31.7375 6.66168 32.3173 6.66168C32.8971 6.66168 33.3558 7.12045 33.3558 7.6997C33.3558 8.27894 32.8971 8.73772 32.3173 8.73772C31.7375 8.73772 31.2788 8.27894 31.2788 7.6997ZM9.74039 20.0038C9.74039 14.3587 14.3625 9.73772 20.0096 9.73772C25.6567 9.73772 30.2788 14.3587 30.2788 20.0038C30.2788 25.6489 25.6567 30.2699 20.0096 30.2699C14.3625 30.2699 9.74039 25.6489 9.74039 20.0038ZM28.2019 20.0038C28.2019 15.4596 24.5549 11.8137 20.0096 11.8137C15.4644 11.8137 11.8173 15.4596 11.8173 20.0038C11.8173 24.5481 15.4644 28.1939 20.0096 28.1939C24.5549 28.1939 28.2019 24.5481 28.2019 20.0038Z" fill="#070707" stroke="#070707"/>
</svg>
