<svg width="40" height="40" viewBox="0 0 40 40" fill="none" xmlns="http://www.w3.org/2000/svg">
<path d="M30.9743 7.12298L31.2912 6.73364L30.9006 6.41831C27.9205 4.01253 24.1373 2.57677 20 2.57677C18.5506 2.57677 17.1451 2.7753 15.814 3.10067L15.073 3.28177L15.5347 3.88897C16.957 5.75989 19.0002 8.5854 21.4471 13.0106L21.6537 13.3844L22.0552 13.2386C26.6822 11.5588 29.4556 8.98909 30.9743 7.12298ZM13.2795 4.35659L13.0359 4.04284L12.6752 4.20919C8.08123 6.32787 4.59636 10.3769 3.22019 15.3269L3.04947 15.941L3.68655 15.9606C6.21743 16.0384 12.2683 15.9218 18.9728 14.1657L19.602 14.0009L19.281 13.4352C16.6795 8.8514 14.4917 5.91782 13.2795 4.35659ZM33.177 8.61566L32.7929 8.16954L32.4148 8.62072C30.721 10.642 27.7789 13.2689 23.1194 15.0515L22.6031 15.249L22.8513 15.7429C23.8551 17.741 24.8289 19.8701 25.7162 22.1693L25.8604 22.543L26.2565 22.4838C29.6266 21.9807 32.7419 21.9807 35.0951 22.1608C35.6679 22.2073 36.0377 22.2595 36.4673 22.3202C36.5577 22.3329 36.6508 22.3461 36.749 22.3596L37.2584 22.4299L37.3143 21.9187C37.3834 21.2877 37.4231 20.6541 37.4231 19.999C37.4231 15.6422 35.8085 11.6724 33.177 8.61566ZM20.7531 16.2431L20.5675 15.8793L20.1739 15.9886C12.2818 18.1807 5.32954 18.1138 3.16395 18.0283L2.68337 18.0094L2.64576 18.4889L2.64311 18.5226C2.60572 18.999 2.56731 19.4885 2.56731 20.0086C2.56731 25.2465 4.88522 29.9194 8.53607 33.115L8.90423 33.4373L9.23439 33.0762C10.15 32.0748 11.378 30.7994 12.8712 29.4679L12.8732 29.4661C15.6819 26.9346 19.2978 24.254 23.2385 23.084L23.7636 22.9281L23.5605 22.4193C22.6792 20.2114 21.7304 18.159 20.7531 16.2431ZM30.4721 24.1433L30.4668 24.1436C29.4333 24.1923 28.333 24.2897 27.2142 24.4357L26.6133 24.5141L26.8043 25.0891C27.749 27.9326 28.5304 30.9447 29.0352 34.0779L29.1603 34.8541L29.8102 34.4116C33.0667 32.1946 35.5323 28.8981 36.6813 25.0256L36.8514 24.4521L36.2568 24.3864C34.764 24.2216 32.8717 24.0556 30.4721 24.1433ZM24.6744 25.3254L24.5196 24.8789L24.0651 25.0082C20.6108 25.9909 16.9951 28.5401 14.2535 31.0005C12.9289 32.179 11.8591 33.2977 11.0005 34.2142L10.5736 34.6698L11.1115 34.9868C13.713 36.5199 16.7328 37.4213 19.9904 37.4213C22.4353 37.4213 24.7417 36.9163 26.8484 36.0261L27.2018 35.8769L27.1491 35.4969C26.6537 31.9223 25.7798 28.5156 24.6744 25.3254ZM0.5 19.999C0.5 9.2565 9.25689 0.5 20 0.5C30.7431 0.5 39.5 9.2565 39.5 19.999C39.5 30.7416 30.7431 39.498 20 39.498C9.25689 39.498 0.5 30.7416 0.5 19.999Z" fill="#070707" stroke="#070707"/>
</svg>
